# xmcd
#
# Track frame offsets:
#	150
#	23805
#	39270
#	58417
#	72992
#	85672
#	99277
#	114202
#	127962
#	143057
#	160112
#	178582
#	195667
#
# Disc length: 2809 seconds
#
# Revision: 1
# Processed by: cddbd v1.5.1PL0 Copyright (c) Steve Scherf et al.
# Submitted via: EasyCDDAExtractor 6.5.7.1
#
DISCID=a20af70d
DTITLE=Various Artist - Bolicho da Alegria
DYEAR=2002
DGENRE=Gaúcha
TTITLE0=Xirú Missioneiro - Corpo Esgualepado
TTITLE1=Grupo Candeeiro - Tô Chegando no Pedaço
TTITLE2=João Luiz Corrêa - Um Bagual Corcoveador
TTITLE3=Grupo Surungaço - Casamento é uma Gaiola
TTITLE4=Grupo Minuano - Ginga do Bugio
TTITLE5=Tchê Guri - Baita Baile
TTITLE6=Os Farrapos - Vaneira Sacudida
TTITLE7=Tchê Barbaridade - Bica que Bica
TTITLE8=Grupo Quero-Quero - Rei do Rodeio
TTITLE9=Gurizada Medonha - No balanço do Surungo
TTITLE10=Oswaldir e Carlos Magrão - Lago Verde-Azul
TTITLE11=Os Mirins - Barbaridade
TTITLE12=Crioulo dos Pampas - O peito do Pedro é Preto
EXTD=
EXTT0=
EXTT1=
EXTT2=
EXTT3=
EXTT4=
EXTT5=
EXTT6=
EXTT7=
EXTT8=
EXTT9=
EXTT10=
EXTT11=
EXTT12=
PLAYORDER=
